<svg id="fan1">
    <path _ngcontent-rok-c43="" clip-rule="evenodd" d="M16 19.4286L0 24V32H16V19.4286Z"
          fill="var(--colorBgPrimary)" fill-rule="evenodd"></path>
    <path clip-rule="evenodd" d="M20 32H36V13.7143L20 18.2857V32Z" fill="currentColor"
          fill-rule="evenodd" opacity="0.3"></path>
    <path clip-rule="evenodd" d="M40 32H56V8L40 12.5714V32Z" fill="currentColor"
          fill-rule="evenodd" opacity="0.3"></path>
    <path
            d="M8.66665 12.6666C8.66665 11.7266 8.99998 10.8666 9.53331 10.1866C9.44665 9.97998 9.35331 9.76665 9.23998 9.55998C9.50665 9.33331 9.71331 9.05998 9.84665 8.73998C10.1733 8.80665 10.52 8.92665 10.8333 9.11331C11.4158 8.81214 12.0634 8.65887 12.7191 8.66701C13.3748 8.67514 14.0185 8.84444 14.5933 9.15998C14.6333 8.91331 14.6666 8.63998 14.6666 8.33331C14.6666 5.94665 12.02 5.41998 9.55331 6.75331C9.33331 6.48665 9.05998 6.27998 8.73998 6.14665C8.86665 5.52665 9.15998 4.82665 9.81998 4.49998C11.3933 3.71331 11.3333 1.33331 8.33331 1.33331C5.95331 1.33331 5.42665 3.97331 6.75331 6.43331C6.47998 6.64665 6.26665 6.92665 6.13998 7.24665C5.51998 7.11998 4.81998 6.83331 4.48665 6.17331C3.70665 4.59331 1.33331 4.66665 1.33331 7.66665C1.33331 10.0466 3.96665 10.5666 6.42665 9.24665C6.63998 9.51331 6.92665 9.72665 7.25331 9.85998C7.11998 10.4733 6.82665 11.1666 6.17331 11.4933C4.59998 12.28 4.66665 14.6666 7.66665 14.6666C8.20665 14.6666 8.66665 14.52 8.99998 14.2733C8.79331 13.78 8.66665 13.24 8.66665 12.6666ZM7.99998 8.66665C7.61998 8.66665 7.33331 8.36665 7.33331 7.99998C7.33331 7.63331 7.61998 7.33331 7.99998 7.33331C8.35998 7.33331 8.66665 7.63331 8.66665 7.99998C8.66665 8.36665 8.35998 8.66665 7.99998 8.66665ZM11.3333 9.99998V11.3333H12V15.3333H13.3333V9.99998H11.3333Z"
            fill="currentColor"></path>
    <rect fill="currentColor" height="24" opacity="0.3" width="16" x="60" y="8"></rect>
    <path
            d="M69.2148 23L68.8008 21.6406H66.7188L66.3047 23H65L67.0156 17.2656H68.4961L70.5195 23H69.2148ZM68.5117 20.625C68.1289 19.3932 67.9128 18.6966 67.8633 18.5352C67.8164 18.3737 67.7826 18.2461 67.7617 18.1523C67.6758 18.4857 67.4297 19.3099 67.0234 20.625H68.5117Z"
            fill="currentColor"></path>
</svg>
